<svg xmlns="http://www.w3.org/2000/svg" xmlns:xlink="http://www.w3.org/1999/xlink" width="500" zoomAndPan="magnify" viewBox="0 0 375 374.999991" height="500" preserveAspectRatio="xMidYMid meet" version="1.0"><defs><g/></defs><rect x="-37.5" width="450" fill="#ffffff" y="-37.499999" height="449.999989" fill-opacity="1"/><rect x="-37.5" width="450" fill="#7ed957" y="-37.499999" height="449.999989" fill-opacity="1"/><g fill="#000000" fill-opacity="1"><g transform="translate(146.594087, 241.233179)"><g><path d="M 6.890625 0 L 5.78125 -2.859375 L 2.15625 -2.859375 L 1.0625 0 L 0 0 L 3.53125 -9.046875 L 4.46875 -9.046875 L 7.96875 0 Z M 5.46875 -3.796875 L 4.40625 -6.640625 C 4.382812 -6.710938 4.34375 -6.832031 4.28125 -7 C 4.226562 -7.164062 4.171875 -7.335938 4.109375 -7.515625 C 4.054688 -7.703125 4.007812 -7.847656 3.96875 -7.953125 C 3.9375 -7.785156 3.894531 -7.617188 3.84375 -7.453125 C 3.789062 -7.285156 3.742188 -7.128906 3.703125 -6.984375 C 3.660156 -6.847656 3.625 -6.734375 3.59375 -6.640625 L 2.515625 -3.796875 Z M 5.46875 -3.796875 "/></g></g></g><g fill="#000000" fill-opacity="1"><g transform="translate(155.206304, 241.233179)"><g><path d="M 8.046875 -9.015625 L 8.046875 -3.1875 C 8.046875 -2.539062 7.914062 -1.96875 7.65625 -1.46875 C 7.40625 -0.976562 7.019531 -0.585938 6.5 -0.296875 C 5.988281 -0.015625 5.34375 0.125 4.5625 0.125 C 3.445312 0.125 2.597656 -0.175781 2.015625 -0.78125 C 1.429688 -1.382812 1.140625 -2.191406 1.140625 -3.203125 L 1.140625 -9.015625 L 2.1875 -9.015625 L 2.1875 -3.171875 C 2.1875 -2.410156 2.390625 -1.820312 2.796875 -1.40625 C 3.203125 -0.988281 3.8125 -0.78125 4.625 -0.78125 C 5.164062 -0.78125 5.613281 -0.878906 5.96875 -1.078125 C 6.320312 -1.273438 6.582031 -1.550781 6.75 -1.90625 C 6.925781 -2.269531 7.015625 -2.691406 7.015625 -3.171875 L 7.015625 -9.015625 Z M 8.046875 -9.015625 "/></g></g></g><g fill="#000000" fill-opacity="1"><g transform="translate(165.038723, 241.233179)"><g><path d="M 4 0 L 2.953125 0 L 2.953125 -8.09375 L 0.109375 -8.09375 L 0.109375 -9.015625 L 6.828125 -9.015625 L 6.828125 -8.09375 L 4 -8.09375 Z M 4 0 "/></g></g></g><g fill="#000000" fill-opacity="1"><g transform="translate(172.621773, 241.233179)"><g><path d="M 9.046875 -4.515625 C 9.046875 -3.828125 8.957031 -3.195312 8.78125 -2.625 C 8.601562 -2.050781 8.34375 -1.5625 8 -1.15625 C 7.65625 -0.75 7.222656 -0.429688 6.703125 -0.203125 C 6.191406 0.015625 5.597656 0.125 4.921875 0.125 C 4.222656 0.125 3.613281 0.015625 3.09375 -0.203125 C 2.570312 -0.429688 2.140625 -0.75 1.796875 -1.15625 C 1.453125 -1.570312 1.191406 -2.0625 1.015625 -2.625 C 0.847656 -3.195312 0.765625 -3.832031 0.765625 -4.53125 C 0.765625 -5.445312 0.914062 -6.253906 1.21875 -6.953125 C 1.53125 -7.648438 1.992188 -8.191406 2.609375 -8.578125 C 3.222656 -8.960938 4 -9.15625 4.9375 -9.15625 C 5.832031 -9.15625 6.582031 -8.960938 7.1875 -8.578125 C 7.800781 -8.191406 8.265625 -7.65625 8.578125 -6.96875 C 8.890625 -6.28125 9.046875 -5.460938 9.046875 -4.515625 Z M 1.875 -4.515625 C 1.875 -3.753906 1.984375 -3.09375 2.203125 -2.53125 C 2.421875 -1.96875 2.753906 -1.535156 3.203125 -1.234375 C 3.648438 -0.929688 4.222656 -0.78125 4.921875 -0.78125 C 5.617188 -0.78125 6.191406 -0.929688 6.640625 -1.234375 C 7.085938 -1.535156 7.414062 -1.96875 7.625 -2.53125 C 7.84375 -3.09375 7.953125 -3.753906 7.953125 -4.515625 C 7.953125 -5.679688 7.707031 -6.59375 7.21875 -7.25 C 6.726562 -7.90625 5.96875 -8.234375 4.9375 -8.234375 C 4.238281 -8.234375 3.660156 -8.082031 3.203125 -7.78125 C 2.753906 -7.476562 2.421875 -7.050781 2.203125 -6.5 C 1.984375 -5.945312 1.875 -5.285156 1.875 -4.515625 Z M 1.875 -4.515625 "/></g></g></g><g fill="#000000" fill-opacity="1"><g transform="translate(183.070457, 241.233179)"><g><path d="M 5.203125 0 L 2.171875 -7.984375 L 2.125 -7.984375 C 2.132812 -7.804688 2.144531 -7.597656 2.15625 -7.359375 C 2.175781 -7.117188 2.1875 -6.851562 2.1875 -6.5625 C 2.195312 -6.28125 2.203125 -5.992188 2.203125 -5.703125 L 2.203125 0 L 1.234375 0 L 1.234375 -9.015625 L 2.78125 -9.015625 L 5.640625 -1.515625 L 5.6875 -1.515625 L 8.578125 -9.015625 L 10.125 -9.015625 L 10.125 0 L 9.09375 0 L 9.09375 -5.765625 C 9.09375 -6.035156 9.09375 -6.304688 9.09375 -6.578125 C 9.101562 -6.847656 9.113281 -7.101562 9.125 -7.34375 C 9.132812 -7.582031 9.148438 -7.789062 9.171875 -7.96875 L 9.125 -7.96875 L 6.046875 0 Z M 5.203125 0 "/></g></g></g><g fill="#000000" fill-opacity="1"><g transform="translate(195.053633, 241.233179)"><g><path d="M 6.890625 0 L 5.78125 -2.859375 L 2.15625 -2.859375 L 1.0625 0 L 0 0 L 3.53125 -9.046875 L 4.46875 -9.046875 L 7.96875 0 Z M 5.46875 -3.796875 L 4.40625 -6.640625 C 4.382812 -6.710938 4.34375 -6.832031 4.28125 -7 C 4.226562 -7.164062 4.171875 -7.335938 4.109375 -7.515625 C 4.054688 -7.703125 4.007812 -7.847656 3.96875 -7.953125 C 3.9375 -7.785156 3.894531 -7.617188 3.84375 -7.453125 C 3.789062 -7.285156 3.742188 -7.128906 3.703125 -6.984375 C 3.660156 -6.847656 3.625 -6.734375 3.59375 -6.640625 L 2.515625 -3.796875 Z M 5.46875 -3.796875 "/></g></g></g><g fill="#000000" fill-opacity="1"><g transform="translate(203.665849, 241.233179)"><g><path d="M 4 0 L 2.953125 0 L 2.953125 -8.09375 L 0.109375 -8.09375 L 0.109375 -9.015625 L 6.828125 -9.015625 L 6.828125 -8.09375 L 4 -8.09375 Z M 4 0 "/></g></g></g><g fill="#000000" fill-opacity="1"><g transform="translate(211.248899, 241.233179)"><g><path d="M 1.234375 0 L 1.234375 -9.015625 L 2.28125 -9.015625 L 2.28125 0 Z M 1.234375 0 "/></g></g></g><g fill="#000000" fill-opacity="1"><g transform="translate(215.405518, 241.233179)"><g><path d="M 7.53125 -9.015625 L 4.296875 0 L 3.234375 0 L 0 -9.015625 L 1.09375 -9.015625 L 3.203125 -3.078125 C 3.285156 -2.835938 3.359375 -2.609375 3.421875 -2.390625 C 3.492188 -2.171875 3.554688 -1.960938 3.609375 -1.765625 C 3.671875 -1.566406 3.722656 -1.367188 3.765625 -1.171875 C 3.804688 -1.367188 3.851562 -1.566406 3.90625 -1.765625 C 3.957031 -1.972656 4.015625 -2.1875 4.078125 -2.40625 C 4.148438 -2.625 4.234375 -2.851562 4.328125 -3.09375 L 6.421875 -9.015625 Z M 7.53125 -9.015625 "/></g></g></g><g fill="#000000" fill-opacity="1"><g transform="translate(223.561699, 241.233179)"><g><path d="M 6.25 0 L 1.234375 0 L 1.234375 -9.015625 L 6.25 -9.015625 L 6.25 -8.09375 L 2.28125 -8.09375 L 2.28125 -5.171875 L 6.015625 -5.171875 L 6.015625 -4.265625 L 2.28125 -4.265625 L 2.28125 -0.921875 L 6.25 -0.921875 Z M 6.25 0 "/></g></g></g><g fill="#000000" fill-opacity="1"><g transform="translate(123.724801, 220.623487)"><g><path d="M 2.421875 0 L 2.421875 -19.796875 L 8.78125 -19.796875 L 8.78125 0 Z M 2.421875 0 "/></g></g></g><g fill="#000000" fill-opacity="1"><g transform="translate(135.491569, 220.623487)"><g><path d="M 16.28125 0 L 7.96875 -9.609375 L 7.96875 0 L 2.125 0 L 2.125 -19.796875 L 7.6875 -19.796875 L 16 -10.046875 L 16 -19.796875 L 21.828125 -19.796875 L 21.828125 0 Z M 16.28125 0 "/></g></g></g><g fill="#000000" fill-opacity="1"><g transform="translate(160.032015, 220.623487)"><g><path d="M 10.4375 -20.140625 C 12.96875 -20.140625 15.046875 -19.625 16.671875 -18.59375 C 18.304688 -17.570312 19.144531 -16.050781 19.1875 -14.03125 L 19.1875 -13.6875 L 13.234375 -13.6875 L 13.234375 -13.8125 C 13.234375 -14.382812 13.019531 -14.863281 12.59375 -15.25 C 12.175781 -15.632812 11.535156 -15.828125 10.671875 -15.828125 C 9.828125 -15.828125 9.175781 -15.703125 8.71875 -15.453125 C 8.269531 -15.203125 8.046875 -14.894531 8.046875 -14.53125 C 8.046875 -14.007812 8.351562 -13.625 8.96875 -13.375 C 9.582031 -13.125 10.570312 -12.863281 11.9375 -12.59375 C 13.53125 -12.269531 14.835938 -11.929688 15.859375 -11.578125 C 16.890625 -11.222656 17.785156 -10.640625 18.546875 -9.828125 C 19.316406 -9.023438 19.710938 -7.9375 19.734375 -6.5625 C 19.734375 -4.21875 18.941406 -2.476562 17.359375 -1.34375 C 15.773438 -0.21875 13.660156 0.34375 11.015625 0.34375 C 7.929688 0.34375 5.53125 -0.171875 3.8125 -1.203125 C 2.09375 -2.242188 1.234375 -4.078125 1.234375 -6.703125 L 7.25 -6.703125 C 7.25 -5.703125 7.503906 -5.035156 8.015625 -4.703125 C 8.535156 -4.367188 9.34375 -4.203125 10.4375 -4.203125 C 11.25 -4.203125 11.914062 -4.285156 12.4375 -4.453125 C 12.96875 -4.628906 13.234375 -4.984375 13.234375 -5.515625 C 13.234375 -5.992188 12.941406 -6.351562 12.359375 -6.59375 C 11.773438 -6.84375 10.820312 -7.097656 9.5 -7.359375 C 7.882812 -7.703125 6.546875 -8.0625 5.484375 -8.4375 C 4.429688 -8.8125 3.507812 -9.429688 2.71875 -10.296875 C 1.9375 -11.160156 1.546875 -12.332031 1.546875 -13.8125 C 1.546875 -15.976562 2.382812 -17.570312 4.0625 -18.59375 C 5.75 -19.625 7.875 -20.140625 10.4375 -20.140625 Z M 10.4375 -20.140625 "/></g></g></g><g fill="#000000" fill-opacity="1"><g transform="translate(181.379044, 220.623487)"><g><path d="M 21.828125 -7.96875 C 21.828125 -5.257812 20.972656 -3.195312 19.265625 -1.78125 C 17.566406 -0.363281 15.144531 0.34375 12 0.34375 C 8.851562 0.34375 6.421875 -0.363281 4.703125 -1.78125 C 2.984375 -3.195312 2.125 -5.257812 2.125 -7.96875 L 2.125 -19.796875 L 8.484375 -19.796875 L 8.484375 -8.046875 C 8.484375 -6.941406 8.78125 -6.054688 9.375 -5.390625 C 9.96875 -4.734375 10.832031 -4.40625 11.96875 -4.40625 C 13.09375 -4.40625 13.957031 -4.738281 14.5625 -5.40625 C 15.164062 -6.082031 15.46875 -6.960938 15.46875 -8.046875 L 15.46875 -19.796875 L 21.828125 -19.796875 Z M 21.828125 -7.96875 "/></g></g></g><g fill="#000000" fill-opacity="1"><g transform="translate(205.91949, 220.623487)"><g><path d="M 20.90625 -13.71875 C 20.90625 -12.507812 20.578125 -11.414062 19.921875 -10.4375 C 19.273438 -9.457031 18.332031 -8.738281 17.09375 -8.28125 L 21.484375 0 L 14.359375 0 L 10.84375 -7.21875 L 8.484375 -7.21875 L 8.484375 0 L 2.125 0 L 2.125 -19.796875 L 14.234375 -19.796875 C 15.660156 -19.796875 16.875 -19.519531 17.875 -18.96875 C 18.882812 -18.425781 19.640625 -17.6875 20.140625 -16.75 C 20.648438 -15.820312 20.90625 -14.8125 20.90625 -13.71875 Z M 14.4375 -13.46875 C 14.4375 -13.976562 14.265625 -14.40625 13.921875 -14.75 C 13.578125 -15.101562 13.15625 -15.28125 12.65625 -15.28125 L 8.484375 -15.28125 L 8.484375 -11.625 L 12.65625 -11.625 C 13.15625 -11.625 13.578125 -11.800781 13.921875 -12.15625 C 14.265625 -12.507812 14.4375 -12.945312 14.4375 -13.46875 Z M 14.4375 -13.46875 "/></g></g></g><g fill="#000000" fill-opacity="1"><g transform="translate(228.877607, 220.623487)"><g><path d="M 15.390625 0 L 14.5625 -2.796875 L 7.625 -2.796875 L 6.78125 0 L 0.28125 0 L 7.515625 -19.796875 L 14.90625 -19.796875 L 22.125 0 Z M 8.953125 -7.21875 L 13.234375 -7.21875 L 11.15625 -14.265625 L 11.046875 -14.265625 Z M 8.953125 -7.21875 "/></g></g></g><g fill="#000000" fill-opacity="1"><g transform="translate(142.457969, 190.498156)"><g><path d="M 19.796875 -59.65625 L 19.796875 0 L 5.265625 0 L 5.265625 -59.65625 Z M 19.796875 -59.65625 "/></g></g></g><g fill="#000000" fill-opacity="1"><g transform="translate(165.242146, 190.498156)"><g><path d="M 58.640625 0 L 44.109375 0 L 19.796875 -36.796875 L 19.796875 0 L 5.265625 0 L 5.265625 -59.65625 L 19.796875 -59.65625 L 44.109375 -22.6875 L 44.109375 -59.65625 L 58.640625 -59.65625 Z M 58.640625 0 "/></g></g></g></svg>